<svg xmlns="http://www.w3.org/2000/svg" xmlns:xlink="http://www.w3.org/1999/xlink" version="1.1" x="0px" y="0px" viewBox="0 0 100 125" enable-background="new 0 0 100 100" xml:space="preserve"><path d="M33.22,5.515L6.936,60.31l18.303,16.654l48.748,18.161l17.877-48.643L92,21.476L33.22,5.515z M77.838,67.973  c0.007,0.034,0.005,0.088-0.004,0.156s-0.025,0.151-0.047,0.243c-0.022,0.092-0.049,0.192-0.081,0.297  c-0.032,0.104-0.069,0.212-0.109,0.318l-5.911,15.726c-0.042,0.111-0.083,0.211-0.123,0.298c-0.04,0.087-0.078,0.16-0.112,0.215  c-0.034,0.056-0.064,0.095-0.088,0.113c-0.024,0.018-0.042,0.016-0.052-0.01l-1.575-4.067c-0.012-0.03-0.014-0.083-0.007-0.154  c0.007-0.07,0.022-0.158,0.044-0.256c0.022-0.099,0.052-0.208,0.087-0.324c0.035-0.115,0.076-0.236,0.122-0.355l6.45-16.951  c0.043-0.114,0.086-0.215,0.127-0.3c0.041-0.084,0.079-0.153,0.112-0.202c0.034-0.049,0.063-0.078,0.085-0.086  c0.023-0.008,0.039,0.007,0.046,0.046L77.838,67.973z M77.566,60.676c-0.007-0.04-0.005-0.102,0.004-0.178  c0.01-0.077,0.027-0.168,0.05-0.269c0.023-0.101,0.053-0.211,0.088-0.324c0.035-0.113,0.074-0.229,0.117-0.342l6.096-16.02  c0.041-0.108,0.081-0.201,0.118-0.277c0.037-0.076,0.071-0.134,0.1-0.173c0.029-0.039,0.054-0.058,0.072-0.056  c0.018,0.002,0.03,0.027,0.034,0.075l0.494,6.511c0.003,0.042-0.002,0.102-0.013,0.175c-0.011,0.073-0.029,0.159-0.052,0.253  c-0.023,0.093-0.051,0.194-0.082,0.297c-0.032,0.103-0.067,0.207-0.105,0.308l-5.611,14.928c-0.039,0.105-0.078,0.198-0.115,0.277  c-0.037,0.078-0.071,0.142-0.101,0.189c-0.03,0.046-0.056,0.075-0.076,0.084c-0.02,0.009-0.034-0.003-0.04-0.037L77.566,60.676z   M71.669,85.791c0.021-0.089,0.048-0.188,0.08-0.293c0.032-0.105,0.07-0.215,0.111-0.325l5.856-15.601  c0.04-0.105,0.079-0.199,0.115-0.278c0.037-0.079,0.071-0.144,0.101-0.191c0.03-0.047,0.056-0.077,0.076-0.087  c0.02-0.01,0.034,0,0.041,0.033L78.92,73.5c0.006,0.029,0.004,0.076-0.005,0.137c-0.009,0.061-0.024,0.135-0.044,0.219  c-0.02,0.083-0.046,0.175-0.075,0.271s-0.063,0.195-0.1,0.294l-5.408,14.556c-0.038,0.102-0.076,0.196-0.112,0.276  c-0.036,0.081-0.07,0.149-0.101,0.202c-0.031,0.053-0.057,0.09-0.079,0.109s-0.037,0.019-0.046-0.003l-1.319-3.407  c-0.01-0.025-0.011-0.072-0.004-0.134C71.634,85.958,71.648,85.879,71.669,85.791z M78.743,67.197  c-0.006-0.034-0.004-0.087,0.005-0.155c0.009-0.068,0.025-0.149,0.047-0.24s0.049-0.19,0.081-0.293  c0.032-0.103,0.068-0.209,0.107-0.314l5.561-14.816c0.038-0.1,0.074-0.187,0.108-0.259c0.034-0.072,0.065-0.128,0.091-0.167  c0.027-0.039,0.049-0.06,0.065-0.061c0.016-0.001,0.027,0.017,0.03,0.058l0.417,5.503c0.003,0.036-0.002,0.088-0.012,0.154  c-0.01,0.065-0.027,0.143-0.048,0.227c-0.021,0.085-0.047,0.177-0.076,0.271c-0.029,0.094-0.062,0.191-0.097,0.285l-5.155,13.875  c-0.036,0.098-0.072,0.185-0.105,0.259c-0.033,0.074-0.065,0.135-0.092,0.18c-0.027,0.045-0.051,0.074-0.069,0.084  c-0.018,0.01-0.03,0.002-0.036-0.027L78.743,67.197z M84.967,41.214c-0.003-0.049,0.002-0.118,0.014-0.2  c0.012-0.082,0.031-0.178,0.056-0.28c0.025-0.103,0.055-0.213,0.089-0.324c0.034-0.111,0.072-0.223,0.113-0.329l5.77-15.164  c0.039-0.102,0.076-0.188,0.11-0.256c0.034-0.068,0.064-0.118,0.09-0.148c0.026-0.03,0.046-0.04,0.06-0.029  c0.014,0.011,0.022,0.044,0.022,0.101l0.006,7.601c0,0.049-0.007,0.115-0.02,0.192c-0.013,0.077-0.032,0.166-0.056,0.261  c-0.024,0.095-0.052,0.195-0.083,0.296c-0.031,0.101-0.065,0.202-0.102,0.298l-5.333,14.189c-0.037,0.1-0.074,0.186-0.107,0.257  c-0.034,0.071-0.064,0.127-0.091,0.165c-0.027,0.038-0.049,0.058-0.065,0.058c-0.016,0-0.027-0.02-0.03-0.062L84.967,41.214z   M61.294,35.685l-6.469,15.485c-0.046,0.109-0.112,0.206-0.193,0.287s-0.177,0.147-0.281,0.195  c-0.104,0.048-0.217,0.077-0.332,0.085c-0.115,0.008-0.232-0.005-0.345-0.041l-16.031-5.213c-0.108-0.035-0.202-0.09-0.278-0.16  c-0.076-0.069-0.136-0.153-0.176-0.246c-0.04-0.093-0.06-0.194-0.059-0.299c0.001-0.105,0.024-0.213,0.072-0.319l6.701-15.01  c0.045-0.101,0.11-0.191,0.188-0.267c0.078-0.076,0.17-0.138,0.27-0.183c0.1-0.045,0.207-0.074,0.316-0.084  c0.109-0.009,0.22,0.001,0.327,0.033l15.799,4.738c0.111,0.033,0.209,0.086,0.289,0.154s0.144,0.149,0.189,0.239  c0.044,0.09,0.07,0.19,0.073,0.292C61.357,35.474,61.338,35.58,61.294,35.685z M63.276,36.281c0.043-0.105,0.108-0.198,0.186-0.276  c0.079-0.078,0.172-0.142,0.274-0.189c0.102-0.047,0.213-0.076,0.326-0.085c0.113-0.009,0.229,0.002,0.341,0.035l16.638,4.99  c0.117,0.035,0.221,0.091,0.307,0.161c0.086,0.07,0.156,0.155,0.206,0.249c0.05,0.094,0.08,0.197,0.087,0.304  c0.007,0.107-0.009,0.217-0.05,0.325l-6.175,16.046c-0.044,0.113-0.109,0.213-0.191,0.297c-0.082,0.084-0.179,0.152-0.286,0.201  s-0.223,0.079-0.343,0.087c-0.12,0.008-0.242-0.006-0.361-0.045l-16.904-5.497c-0.114-0.037-0.214-0.095-0.296-0.167  c-0.082-0.072-0.147-0.16-0.192-0.256s-0.07-0.202-0.072-0.31c-0.002-0.109,0.018-0.221,0.063-0.33L63.276,36.281z M52.86,53.637  c0.113,0.037,0.212,0.095,0.293,0.167c0.081,0.073,0.145,0.16,0.19,0.257c0.044,0.097,0.068,0.202,0.07,0.312  c0.002,0.109-0.019,0.222-0.065,0.332l-6.836,16.364c-0.048,0.116-0.118,0.217-0.202,0.303s-0.183,0.154-0.29,0.203  c-0.107,0.049-0.223,0.078-0.34,0.086c-0.117,0.007-0.237-0.008-0.352-0.049L29.034,65.82c-0.11-0.039-0.205-0.099-0.281-0.174  c-0.077-0.075-0.136-0.165-0.175-0.264c-0.039-0.099-0.059-0.207-0.055-0.318c0.003-0.111,0.028-0.226,0.078-0.338l7.073-15.841  c0.048-0.107,0.115-0.201,0.196-0.281c0.081-0.08,0.176-0.144,0.278-0.191c0.102-0.047,0.212-0.076,0.323-0.084  c0.111-0.008,0.224,0.004,0.333,0.039L52.86,53.637z M48.555,71.793l6.808-16.424c0.046-0.111,0.113-0.209,0.194-0.291  c0.082-0.082,0.178-0.149,0.283-0.197c0.105-0.048,0.218-0.077,0.334-0.086s0.234,0.005,0.348,0.043l16.934,5.556  c0.12,0.039,0.224,0.1,0.312,0.176s0.158,0.167,0.207,0.268c0.05,0.101,0.079,0.211,0.085,0.324  c0.006,0.114-0.012,0.231-0.056,0.345L67.469,78.49c-0.046,0.12-0.115,0.226-0.2,0.314c-0.085,0.088-0.185,0.159-0.295,0.21  c-0.11,0.05-0.23,0.08-0.352,0.087c-0.122,0.007-0.248-0.01-0.369-0.053l-17.207-6.115c-0.116-0.041-0.217-0.104-0.3-0.183  c-0.083-0.078-0.148-0.172-0.192-0.275c-0.044-0.103-0.068-0.216-0.069-0.331C48.485,72.027,48.507,71.909,48.555,71.793z   M70.951,17.934c0.076-0.075,0.167-0.136,0.266-0.182c0.099-0.045,0.207-0.074,0.318-0.085s0.224-0.002,0.335,0.029l16.348,4.475  c0.115,0.032,0.217,0.082,0.302,0.147c0.086,0.065,0.155,0.144,0.204,0.232c0.05,0.088,0.08,0.185,0.089,0.285  c0.008,0.1-0.006,0.204-0.045,0.307l-5.844,15.185c-0.041,0.107-0.104,0.202-0.183,0.282c-0.079,0.08-0.173,0.145-0.277,0.193  s-0.218,0.078-0.334,0.087c-0.117,0.009-0.237-0.002-0.354-0.037l-16.608-4.936c-0.112-0.033-0.21-0.086-0.292-0.154  c-0.081-0.067-0.146-0.148-0.191-0.239c-0.045-0.09-0.071-0.189-0.075-0.291c-0.004-0.102,0.014-0.208,0.057-0.311l6.104-14.724  C70.814,18.098,70.875,18.009,70.951,17.934z M51.893,12.706c0.076-0.073,0.165-0.133,0.262-0.177  c0.097-0.044,0.202-0.073,0.308-0.083c0.107-0.01,0.216-0.002,0.321,0.026l15.545,4.255c0.109,0.03,0.205,0.079,0.285,0.141  c0.08,0.062,0.143,0.138,0.188,0.223c0.045,0.085,0.071,0.178,0.075,0.275s-0.013,0.197-0.054,0.296l-6.131,14.674  c-0.043,0.103-0.107,0.195-0.185,0.273c-0.078,0.078-0.171,0.141-0.273,0.187c-0.101,0.046-0.211,0.076-0.324,0.085  c-0.112,0.009-0.227-0.001-0.338-0.034L45.8,28.159c-0.107-0.032-0.199-0.082-0.275-0.147s-0.135-0.143-0.175-0.229  c-0.04-0.087-0.062-0.182-0.062-0.281c0-0.099,0.021-0.201,0.066-0.301l6.359-14.242C51.755,12.864,51.817,12.778,51.893,12.706z   M26.985,21.763l6.582-13.788c0.044-0.093,0.107-0.176,0.182-0.247c0.075-0.071,0.163-0.129,0.258-0.172s0.196-0.071,0.299-0.082  c0.103-0.01,0.207-0.003,0.307,0.024l14.8,4.051c0.104,0.028,0.194,0.075,0.269,0.135c0.075,0.06,0.133,0.133,0.173,0.214  s0.062,0.172,0.063,0.265c0.001,0.094-0.019,0.191-0.062,0.287l-6.382,14.195c-0.045,0.1-0.109,0.189-0.187,0.264  c-0.078,0.075-0.169,0.137-0.268,0.182c-0.099,0.045-0.206,0.074-0.314,0.084s-0.218,0-0.323-0.031l-15-4.458  c-0.101-0.03-0.188-0.079-0.259-0.141c-0.071-0.062-0.125-0.137-0.161-0.221c-0.036-0.084-0.053-0.175-0.05-0.271  C26.916,21.959,26.939,21.86,26.985,21.763z M18.557,39.419l6.928-14.513c0.047-0.098,0.112-0.185,0.19-0.259  c0.078-0.074,0.168-0.134,0.265-0.178s0.201-0.072,0.306-0.082c0.105-0.01,0.211,0,0.313,0.03l15.022,4.505  c0.105,0.032,0.197,0.082,0.272,0.147c0.075,0.065,0.134,0.143,0.174,0.23c0.04,0.087,0.061,0.183,0.06,0.282  c0,0.099-0.022,0.202-0.067,0.303l-6.726,14.958c-0.047,0.105-0.115,0.199-0.195,0.278c-0.081,0.079-0.175,0.143-0.277,0.189  c-0.102,0.046-0.211,0.075-0.321,0.084c-0.11,0.009-0.222-0.003-0.329-0.038l-15.224-4.951c-0.103-0.033-0.191-0.086-0.262-0.153  c-0.071-0.067-0.125-0.147-0.161-0.236c-0.035-0.089-0.052-0.187-0.047-0.288C18.483,39.625,18.509,39.521,18.557,39.419z   M9.676,58.024l7.302-15.296c0.049-0.103,0.117-0.195,0.198-0.272c0.08-0.077,0.173-0.14,0.273-0.185  c0.1-0.045,0.206-0.074,0.313-0.082c0.107-0.009,0.215,0.003,0.318,0.036l15.247,5.003c0.107,0.035,0.2,0.09,0.275,0.16  s0.134,0.154,0.174,0.246c0.039,0.093,0.059,0.195,0.057,0.3c-0.002,0.105-0.026,0.214-0.073,0.32L26.663,64.04  c-0.05,0.111-0.12,0.21-0.204,0.292c-0.084,0.082-0.181,0.149-0.285,0.197c-0.105,0.048-0.216,0.077-0.329,0.084  c-0.113,0.007-0.227-0.007-0.335-0.045l-15.452-5.492c-0.104-0.037-0.193-0.094-0.265-0.166c-0.071-0.072-0.125-0.158-0.16-0.253  c-0.035-0.095-0.05-0.199-0.043-0.306C9.596,58.243,9.624,58.132,9.676,58.024z M49.194,79.339c0.021,0.028,0.018,0.047-0.003,0.057  c-0.021,0.01-0.061,0.012-0.117,0.005c-0.056-0.007-0.128-0.022-0.212-0.045c-0.084-0.023-0.181-0.054-0.287-0.093l-15.026-5.47  c-0.102-0.037-0.204-0.078-0.302-0.122c-0.098-0.043-0.192-0.088-0.277-0.132c-0.085-0.044-0.161-0.088-0.222-0.127  s-0.109-0.076-0.137-0.107l-4.371-4.749c-0.032-0.035-0.041-0.061-0.03-0.077s0.044-0.023,0.094-0.021  c0.05,0.003,0.118,0.014,0.201,0.035c0.083,0.021,0.18,0.051,0.289,0.09l16.184,5.815c0.114,0.041,0.228,0.087,0.336,0.134  c0.108,0.048,0.21,0.097,0.301,0.146c0.091,0.049,0.17,0.096,0.233,0.139c0.063,0.043,0.109,0.083,0.132,0.116L49.194,79.339z   M48.004,75.662c-0.023-0.032-0.021-0.055,0.001-0.068c0.022-0.013,0.065-0.016,0.126-0.011c0.06,0.006,0.138,0.021,0.23,0.045  s0.197,0.057,0.312,0.098l17.084,6.138c0.121,0.043,0.238,0.091,0.348,0.139c0.11,0.049,0.211,0.098,0.299,0.146  c0.088,0.048,0.162,0.094,0.218,0.136c0.056,0.042,0.093,0.079,0.106,0.108l1.79,3.976c0.011,0.025,0,0.041-0.031,0.048  c-0.031,0.007-0.081,0.005-0.147-0.005c-0.066-0.01-0.146-0.028-0.239-0.054s-0.196-0.059-0.307-0.1l-15.795-5.75  c-0.107-0.039-0.212-0.081-0.312-0.125s-0.193-0.089-0.276-0.133c-0.083-0.044-0.155-0.086-0.211-0.125s-0.097-0.073-0.116-0.101  L48.004,75.662z M33.575,74.198c0.048,0.005,0.112,0.017,0.19,0.038c0.077,0.021,0.168,0.05,0.269,0.087l14.907,5.434  c0.105,0.038,0.209,0.08,0.308,0.124c0.098,0.043,0.191,0.088,0.273,0.131c0.082,0.043,0.154,0.085,0.209,0.123  c0.056,0.038,0.096,0.072,0.116,0.099l2.706,3.708c0.017,0.024,0.014,0.039-0.007,0.047c-0.021,0.007-0.059,0.007-0.112-0.001  c-0.053-0.008-0.12-0.024-0.199-0.046c-0.078-0.023-0.168-0.052-0.266-0.088l-13.919-5.129c-0.094-0.035-0.189-0.073-0.279-0.113  c-0.09-0.04-0.176-0.08-0.254-0.12s-0.146-0.078-0.201-0.113c-0.055-0.035-0.097-0.067-0.121-0.093l-3.694-4.013  c-0.027-0.03-0.033-0.05-0.02-0.063C33.495,74.198,33.527,74.194,33.575,74.198z M51.708,80.913  c-0.019-0.027-0.016-0.045,0.006-0.055s0.063-0.01,0.12-0.003c0.057,0.007,0.129,0.023,0.214,0.046  c0.085,0.023,0.182,0.055,0.288,0.093l15.664,5.71c0.11,0.04,0.218,0.084,0.318,0.128c0.1,0.044,0.192,0.089,0.272,0.131  c0.08,0.043,0.147,0.083,0.197,0.12c0.05,0.036,0.083,0.068,0.094,0.092l1.5,3.333c0.01,0.021-0.002,0.034-0.031,0.039  c-0.029,0.005-0.076,0.001-0.137-0.01c-0.061-0.011-0.136-0.029-0.221-0.054c-0.085-0.025-0.181-0.057-0.284-0.094l-14.574-5.37  c-0.099-0.036-0.196-0.076-0.287-0.116c-0.091-0.04-0.177-0.081-0.253-0.12c-0.076-0.039-0.141-0.077-0.191-0.111  c-0.051-0.034-0.087-0.064-0.103-0.087L51.708,80.913z M15.688,67.28c-0.097-0.042-0.191-0.087-0.278-0.132  c-0.087-0.044-0.166-0.089-0.232-0.13c-0.066-0.041-0.12-0.08-0.155-0.112l-5.534-5.091c-0.041-0.038-0.059-0.066-0.057-0.085  c0.002-0.019,0.025-0.029,0.066-0.029c0.041,0,0.1,0.008,0.175,0.027c0.075,0.018,0.165,0.046,0.269,0.083l15.352,5.516  c0.108,0.039,0.218,0.083,0.324,0.13c0.106,0.047,0.209,0.096,0.302,0.145c0.093,0.049,0.177,0.097,0.246,0.143  c0.069,0.045,0.123,0.087,0.156,0.122l4.493,4.785c0.029,0.031,0.036,0.052,0.023,0.065c-0.012,0.013-0.043,0.017-0.091,0.013  s-0.111-0.016-0.188-0.037c-0.077-0.021-0.167-0.049-0.267-0.086l-14.311-5.21C15.884,67.362,15.784,67.322,15.688,67.28z   M21.449,72.598c-0.089-0.039-0.176-0.08-0.254-0.12c-0.079-0.04-0.15-0.079-0.21-0.116c-0.059-0.036-0.107-0.07-0.137-0.098  l-4.696-4.32c-0.035-0.032-0.048-0.055-0.043-0.07s0.029-0.021,0.069-0.019c0.04,0.002,0.097,0.012,0.167,0.031  c0.071,0.019,0.155,0.046,0.251,0.081l14.204,5.178c0.1,0.036,0.201,0.077,0.297,0.12c0.097,0.043,0.19,0.087,0.274,0.131  c0.084,0.044,0.159,0.086,0.22,0.126c0.061,0.039,0.108,0.075,0.136,0.105l3.799,4.045c0.025,0.026,0.029,0.044,0.016,0.054  c-0.013,0.01-0.044,0.012-0.089,0.006c-0.045-0.006-0.106-0.019-0.178-0.039c-0.072-0.02-0.156-0.048-0.249-0.082L21.72,72.707  C21.63,72.674,21.538,72.637,21.449,72.598z M39.484,82.013c-0.044-0.007-0.101-0.02-0.169-0.04  c-0.068-0.02-0.147-0.046-0.234-0.079l-12.433-4.628c-0.084-0.031-0.17-0.066-0.253-0.102c-0.083-0.036-0.162-0.073-0.235-0.11  s-0.138-0.072-0.191-0.104c-0.054-0.032-0.096-0.062-0.122-0.086l-4.035-3.712c-0.03-0.027-0.04-0.046-0.033-0.058  s0.031-0.015,0.071-0.012s0.093,0.015,0.16,0.034c0.067,0.019,0.146,0.045,0.235,0.078l13.214,4.875  c0.093,0.034,0.186,0.072,0.275,0.111c0.089,0.039,0.175,0.079,0.251,0.119c0.077,0.039,0.145,0.077,0.2,0.112  c0.055,0.035,0.097,0.066,0.12,0.091l3.254,3.465c0.021,0.023,0.023,0.037,0.01,0.045C39.557,82.019,39.527,82.019,39.484,82.013z   M55.407,87.905c-0.021,0.005-0.057,0.003-0.107-0.006c-0.05-0.009-0.113-0.024-0.187-0.046c-0.073-0.022-0.157-0.05-0.248-0.084  l-12.963-4.825c-0.088-0.033-0.176-0.068-0.259-0.105c-0.084-0.036-0.163-0.074-0.234-0.11c-0.071-0.036-0.134-0.071-0.184-0.102  s-0.087-0.059-0.108-0.081l-3.163-3.436c-0.023-0.025-0.026-0.042-0.012-0.052c0.014-0.009,0.046-0.011,0.091-0.005  c0.046,0.006,0.107,0.02,0.179,0.04c0.073,0.021,0.157,0.048,0.251,0.083l13.817,5.097c0.097,0.036,0.193,0.075,0.284,0.114  c0.091,0.04,0.176,0.08,0.25,0.119s0.14,0.076,0.19,0.109c0.05,0.033,0.086,0.063,0.103,0.086l2.31,3.165  C55.432,87.887,55.427,87.899,55.407,87.905z M71.932,94.055c-0.028,0.003-0.072-0.002-0.129-0.013s-0.127-0.029-0.206-0.053  c-0.079-0.024-0.168-0.054-0.263-0.089l-13.527-5.035c-0.092-0.034-0.182-0.071-0.267-0.108c-0.085-0.037-0.164-0.074-0.233-0.11  c-0.069-0.036-0.129-0.07-0.175-0.1c-0.046-0.03-0.078-0.056-0.093-0.077l-2.21-3.133c-0.016-0.023-0.012-0.038,0.01-0.044  s0.061-0.006,0.114,0.003c0.053,0.009,0.121,0.024,0.2,0.047s0.169,0.053,0.267,0.089l14.462,5.335  c0.102,0.037,0.201,0.078,0.292,0.118c0.092,0.04,0.176,0.081,0.249,0.119c0.073,0.038,0.134,0.075,0.18,0.107  c0.045,0.032,0.075,0.059,0.084,0.08l1.276,2.834C71.971,94.042,71.96,94.052,71.932,94.055z M79.836,78.331  c-0.008,0.055-0.022,0.123-0.041,0.199s-0.043,0.161-0.07,0.249s-0.059,0.181-0.092,0.273l-4.984,13.547  c-0.035,0.095-0.07,0.182-0.103,0.258c-0.033,0.076-0.064,0.14-0.092,0.19c-0.028,0.05-0.052,0.086-0.071,0.105  s-0.033,0.02-0.04,0.002l-1.122-2.897c-0.008-0.021-0.008-0.062-0.002-0.118c0.007-0.056,0.02-0.127,0.04-0.207  c0.019-0.081,0.044-0.172,0.074-0.268c0.03-0.096,0.064-0.197,0.102-0.299l5.362-14.449c0.036-0.098,0.072-0.185,0.105-0.26  c0.033-0.074,0.065-0.136,0.092-0.181c0.027-0.046,0.051-0.076,0.069-0.087s0.031-0.005,0.036,0.023l0.743,3.798  C79.846,78.234,79.844,78.276,79.836,78.331z M85.687,62.429c-0.01,0.059-0.025,0.129-0.045,0.207s-0.044,0.162-0.071,0.249  c-0.027,0.087-0.057,0.177-0.09,0.265l-4.767,12.959c-0.034,0.091-0.066,0.173-0.097,0.242c-0.031,0.07-0.059,0.128-0.084,0.171  s-0.046,0.072-0.063,0.084c-0.016,0.012-0.027,0.006-0.032-0.019l-0.703-3.893c-0.005-0.029-0.003-0.076,0.006-0.136  c0.009-0.06,0.024-0.134,0.044-0.217s0.046-0.174,0.075-0.268c0.029-0.095,0.063-0.193,0.099-0.29l5.113-13.777  c0.035-0.093,0.068-0.175,0.099-0.243c0.031-0.068,0.059-0.122,0.084-0.161c0.024-0.038,0.045-0.061,0.06-0.065  c0.015-0.004,0.024,0.01,0.027,0.045l0.357,4.712C85.701,62.323,85.697,62.37,85.687,62.429z M85.874,54.792l-0.374-5.602  c-0.003-0.041,0.002-0.101,0.013-0.173c0.011-0.072,0.029-0.158,0.052-0.25c0.023-0.092,0.05-0.192,0.082-0.293  c0.031-0.101,0.066-0.204,0.103-0.303l5.288-14.088c0.036-0.095,0.07-0.176,0.101-0.241s0.059-0.114,0.082-0.145  s0.042-0.044,0.056-0.038c0.013,0.006,0.02,0.032,0.02,0.08l0.005,6.45c0,0.042-0.007,0.1-0.019,0.169  c-0.012,0.069-0.03,0.149-0.052,0.235c-0.022,0.086-0.048,0.178-0.077,0.271s-0.061,0.187-0.094,0.276l-4.919,13.24  c-0.034,0.093-0.068,0.174-0.099,0.241c-0.031,0.068-0.059,0.121-0.083,0.159c-0.024,0.038-0.045,0.059-0.06,0.062  C85.885,54.843,85.876,54.828,85.874,54.792z M91.289,47.205c-0.011,0.062-0.028,0.135-0.048,0.213  c-0.02,0.079-0.044,0.163-0.071,0.249c-0.027,0.086-0.056,0.173-0.087,0.257l-4.565,12.408c-0.032,0.087-0.063,0.163-0.091,0.228  c-0.029,0.064-0.055,0.116-0.077,0.153c-0.022,0.037-0.041,0.059-0.055,0.064s-0.022-0.007-0.024-0.038l-0.32-4.799  c-0.002-0.035,0.002-0.088,0.013-0.152c0.011-0.065,0.027-0.141,0.048-0.225c0.021-0.084,0.047-0.175,0.076-0.268  c0.029-0.093,0.061-0.188,0.095-0.281l4.881-13.152c0.033-0.089,0.065-0.166,0.093-0.228c0.029-0.062,0.055-0.11,0.076-0.142  s0.039-0.047,0.051-0.044c0.012,0.003,0.019,0.023,0.019,0.064l0.004,5.543C91.307,47.091,91.3,47.143,91.289,47.205z"/><text x="0" y="115" fill="#000000" font-size="5px" font-weight="bold" font-family="'Helvetica Neue', Helvetica, Arial-Unicode, Arial, Sans-serif">Created by Matthijs Roumen</text><text x="0" y="120" fill="#000000" font-size="5px" font-weight="bold" font-family="'Helvetica Neue', Helvetica, Arial-Unicode, Arial, Sans-serif">from the Noun Project</text></svg>